/* XPM */
static char *result[] = {
/* columns rows colors chars-per-pixel */
"72 72 116 2 ",
"   c black",
".  c #010200",
"X  c #020401",
"o  c #030601",
"O  c #070400",
"+  c #050802",
"@  c #070C04",
"#  c #0F0900",
"$  c #091305",
"%  c #0C1907",
"&  c #0F1908",
"*  c #0F1A08",
"=  c #0F1F09",
"-  c #2F1C00",
";  c #351B00",
":  c #301C00",
">  c #102209",
",  c #13270B",
"<  c #142A0C",
"1  c #18280D",
"2  c #192A0E",
"3  c #1A2B0E",
"4  c #1D2F0F",
"5  c #18330E",
"6  c #1E2F11",
"7  c #1F3311",
"8  c #232F0D",
"9  c #223711",
"0  c #253D14",
"q  c #492700",
"w  c #4C2600",
"e  c #472A00",
"r  c #492C00",
"t  c #4E2C00",
"y  c #512A00",
"u  c #503000",
"i  c #2C4918",
"p  c #304F1A",
"a  c #295518",
"s  c #2C5B1A",
"d  c #375A1E",
"f  c #34641E",
"g  c #33691E",
"h  c #346A1E",
"j  c #356B1F",
"k  c #3A5F20",
"l  c #376D20",
"z  c #396F21",
"x  c #3B7121",
"c  c #3F7524",
"v  c #774700",
"b  c #7F4000",
"n  c #784800",
"m  c #7C4A00",
"M  c #426C24",
"N  c #427825",
"B  c #4A7929",
"V  c #497F28",
"C  c #005951",
"Z  c #894500",
"A  c #844F00",
"S  c #875000",
"D  c #8F5500",
"F  c #9F5F00",
"G  c #A66200",
"H  c #AF6800",
"J  c #B76D00",
"K  c #BE7100",
"L  c #BF7200",
"P  c #C37400",
"I  c #CC7800",
"U  c #CF7B00",
"Y  c #DD7000",
"T  c #D27900",
"R  c #F57C00",
"E  c #F67F00",
"W  c #4F822C",
"Q  c #4F842C",
"!  c #50862C",
"~  c #53872D",
"^  c #53892E",
"/  c #558B2F",
"(  c #D88100",
")  c #DF8500",
"_  c #E88A00",
"`  c #F78300",
"'  c #F88400",
"]  c #F88600",
"[  c #F08F00",
"{  c #F98800",
"}  c #FA8B00",
"|  c #FB8D00",
" . c #FB8E00",
".. c #FB8F00",
"X. c #F59200",
"o. c #F79300",
"O. c #FC9000",
"+. c #FC9100",
"@. c #FD9400",
"#. c #FE9500",
"$. c #FE9700",
"%. c #FF9800",
"&. c #FF9802",
"*. c #FF9903",
"=. c #FF9B08",
"-. c #FF9B09",
";. c #FF9D0D",
":. c #FF9E10",
">. c #FFA117",
",. c #FFA31C",
"<. c #FFAA2E",
"1. c #FFAB30",
"2. c #FFAE38",
"3. c #FFB13E",
"4. c #FFB445",
"5. c #FFB74D",
/* pixels */
"C C C C C C C C C C C C C C C C C C C C C C C C C C C C C C C C C C C C C C C C C C C C C C C C C C C C C C C C C C C C C C C C C C C C C C C C ",
"C C C C C C C C C C C C C C C C C C C C C C C C C C C C C C C C C C C C C C C C C C C C C C C C C C C C C C C C C C C C C C C C C C C C C C C C ",
"C C C C C C C C C C C C C C C C C C C C C C C C C C C C C C C C C C C C C C C C C C C C C C C C C C C C C C C C C C C C C C C C C C C C C C C C ",
"C C C C C C C C C C C C C C C C C C C C C C C C C C C C C C C C C C C C C C C C C C C C C C C C C C C C C C C C C C C C C C C C C C C C C C C C ",
"C C C C C C C C C C C C C C C C C C C C C C C C C C C C C C C C C C C C C C C C C C C C C C C C C C C C C C C C C C C C C C C C C C C C C C C C ",
"C C C C C C C C C C C C C C C C C C C C C C C C C C C C C C C C C C C C C C C C C C C C C C C C C C C C C C C C C C C C C C C C C C C C C C C C ",
"C C C C C C C C C C C C C C C C C C C C C C C C C C C C C C C C C C C C C C C C C C C C C C C C C C C C C C C C C C C C C C C C C C C C C C C C ",
"C C C C C C C C C C C C C C C C C C C C C C C C C C C C C C C C C C C C C C C C C C C C C C C C C C C C C C C C C C C C C C C C C C C C C C C C ",
"C C C C C C C C C C C C C C C C C C C C C C C C C C C C C C C C C C C C C C C C C C C C C C C C C C C C C C C C C C C C C C C C C C C C C C C C ",
"C C C C C C C C C C C C C C C C C C C C C C C C C C C C C C C C C C C C C C C C C C C C C C C C C C C C C C C C C C C C C C C C C C C C C C C C ",
"C C C C C C C C C C C C C C C C C C C C C C C C C C C C C C C C C C C C C C C C C C C C C C C C C C C C C C C C C C C C C C C C C C C C C C C C ",
"C C C C C C C C C C C C C C C C C C C C C C C C C C C C C C C C C C C C C C C C C C C C C C C C C C C C C C C C C C C C C C C C C C C C C C C C ",
"C C C C C C C C C C C C C C C C C C C C C C C C C C C C C C C C C C C C C C C C C C C C C C C C C C C C C C C C C C C C C C C C C C C C C C C C ",
"C C C C C C C C C C C C C C C C C C C C C C C C C C C C C C C C C C C C C C C C C C C C C C C C C C C C C C C C C C C C C C C C C C C C C C C C ",
"C C C C C C C C C C C C C C C C C C C C C C C C C C C C C C C C C C C C C C C C C C C C C C C C C C C C C C C C C C C C C C C C C C C C C C C C ",
"C C C C C C C C C C C C C C C C C C C C C C C C C C C C C C C C C C C C C C C C C         C C C C C C C             C C C C C C C C C C C C C C ",
"C C C C C C C C C C C C C C C C C C C C C C C C C C C C C C C C C C C C C C C C C         C C C C C C C             C C C C C C C C C C C C C C ",
"C C C C C C C C C C C C C C C C C C C C C C C C C C C C C C C C C C C C C C C C C 7 7 7 7 4 C C C C C C 7 7 7 7 7 7 C C C C C C C C C C C C C C ",
"C C C C C C C C C C C C C C C C C C C C C C C C C C C C C C C C C C C C C C C C   / / / / d     C C     / / / / / / 3   C C C C C C C C C C C C ",
"C C C C C C C C C C C C C C C C C C C C C C C C C C C C C C C C C C C C C C C C   / / / / d     C C     / / / / / / 3   C C C C C C C C C C C C ",
"C C C C C C C C C C C C C C C C C C C C C C C C C C C C C C C C C C C C C     2 W / / / / ~ W W & & W W / / 0 + + + C C C C C C C C C C C C C C ",
"C C C C C C C C C C C C C C C C C C C C C C C C C C C C C C C C C C C C C 6 3 i / / / / / / / / 0 0 / / k k 9       C C C C C C C C C C C C C C ",
"C C C C C C C C C C C C C C C C C C C C C C C C C C C C C C C C C C C   @ M / / / / / / / / / / / / / /     C C C C C C C C C C C C C C C C C C ",
"C C C C C C C C C C C C C C C C C C C C C C C C C C C C C C C C C C C   @ M / / / / / / / ^ ! ! ! Q B B     C C C C C C C C C C C C C C C C C C ",
"C C C C C C C C C C C C C C C C C C C C C C C C C C C C C C C C         @ M / / / / / / / V g g g a     C C C C C C C C C C C C C C C C C C C C ",
"C C C C C C C C C C C C C C C C C C C C C C C C C C C C C C C C         @ M / / / / / / / V g g g a     C C C C C C C C C C C C C C C C C C C C ",
"C C C C C C C C C C C C C C C C C C C C C C C C C C C C C C C C         X 1 7 p / / / N c x g g 5 =     C C C C C C C C C C C C C C C C C C C C ",
"C C C C C C C C C C C C C C C C C C C C C C C C C C C C C                     3 / / / l g g g g $                 C C C C C C C C C C C C C C C ",
"C C C C C C C C C C C C C C C C C C C C C C C C C C C C C # # # # # # # # # # 8 W / / z j h g g % o o o o o .     C C C C C C C C C C C C C C C ",
"C C C C C C C C C C C C C C C C C C C C C C C C C C     S %.%.%.%.%.%.%.%.%.%.H   / / / / V g g g g g g g g <     C C C C C C C C C C C C C C C ",
"C C C C C C C C C C C C C C C C C C C C C C         U U _ %.%.3.3.3.3.3.2.;.%.[ U * * f z l g g g g g g $ $ C C C C C C C C C C C C C C C C C C ",
"C C C C C C C C C C C C C C C C C C C C C C         %.%.%.%.%.5.5.5.5.5.4.:.%.%.%.    s g g g g g g g g     C C C C C C C C C C C C C C C C C C ",
"C C C C C C C C C C C C C C C C C C C C     m F F F 1.1.1.1.1.,.,.,.<.5.4.:.%.%.%.    > , , , , , , , , C C C C C C C C C C C C C C C C C C C C ",
"C C C C C C C C C C C C C C C C C C C C     H %.%.%.5.5.5.5.5.%.%.%.,.5.4.:.%.%.%.                      C C C C C C C C C C C C C C C C C C C C ",
"C C C C C C C C C C C C C C C C C C C C : - K %.%.%.3.3.3.3.3.%.%.%.>.3.2.;.%.%.%.                      C C C C C C C C C C C C C C C C C C C C ",
"C C C C C C C C C C C C C C C C C     r ( ) X.%.%.%.-.-.-.-.-.%.%.%.*.-.=.&.%.%.%.        C C C C C C C C C C C C C C C C C C C C C C C C C C C ",
"C C C C C C C C C C C C C C C C C     e o.%.%.%.%.%.%.%.%.%.%.%.%.%.%.%.%.%.%.%.%.        C C C C C C C C C C C C C C C C C C C C C C C C C C C ",
"C C C C C C C C C C C C C C C C C     e o.%.%.%.%.%.%.%.%.%.%.%.%.%.%.%.%.%.%.%.%.      C C C C C C C C C C C C C C C C C C C C C C C C C C C C ",
"C C C C C C C C C C C C C C C C C     e o.%.%.%.%.%.%.%.%.%.%.%.%.%.%.%.%.%.%.%.%.    C C C C C C C C C C C C C C C C C C C C C C C C C C C C C ",
"C C C C C C C C C C C C C C C     L %.O.R R ..%.%.%.%.%.%.%.%.%.] R ] %.%.%.%.H   C C C C C C C C C C C C C C C C C C C C C C C C C C C C C C C ",
"C C C C C C C C C C C C C C C     L %.O.R R ..%.%.%.%.%.%.%.%.%.] R ] %.%.%.%.H   C C C C C C C C C C C C C C C C C C C C C C C C C C C C C C C ",
"C C C C C C C C C C C C C C   %.%.%.%.%.%.%.' E %.%.%.%.%.%.%.%.%.%.| R Y ;     C C C C C C C C C C C C C C C C C C C C C C C C C C C C C C C C ",
"C C C C C C C C C C C C C C   %.%.%.%.%.%.%.' E %.%.%.%.%.%.%.%.%.%.| R Y ;     C C C C C C C C C C C C C C C C C C C C C C C C C C C C C C C C ",
"C C C C C C C C C C C C C C   %.%.%.%.%.%.%.| { } } %.%.%.%.%.%.%.%.T Z b q C C C C C C C C C C C C C C C C C C C C C C C C C C C C C C C C C C ",
"C C C C C C C C C C C C C C   %.%.%.%.%.%.%.%.@.R R %.%.%.%.%.%.%.%.F     C C C C C C C C C C C C C C C C C C C C C C C C C C C C C C C C C C C ",
"C C C C C C C C C C C C C C   %.%.%.%.%.%.%.%.@.R R %.%.%.%.%.%.%.%.F     C C C C C C C C C C C C C C C C C C C C C C C C C C C C C C C C C C C ",
"C C C C C C C C C C C C   - %.%.%.%.%.%.%.%.%.%.%.%.%.%.%.%.%.        C C C C C C C C C C C C C C C C C C C C C C C C C C C C C C C C C C C C C ",
"C C C C C C C C C C C C   - %.%.%. .} ..$.%.%.%.%.%.%.%.P D D       C C C C C C C C C C C C C C C C C C C C C C C C C C C C C C C C C C C C C C ",
"C C C C C C C C C C C C   - %.%.%.` R ` $.%.%.%.%.%.%.%.v     C C C C C C C C C C C C C C C C C C C C C C C C C C C C C C C C C C C C C C C C C ",
"C C C C C C C C C C C C   - %.%.%.{ ` ] O.+.#.o.L L L L n     C C C C C C C C C C C C C C C C C C C C C C C C C C C C C C C C C C C C C C C C C ",
"C C C C C C C C C C C C   - %.%.%.%.%.O.R R ..)         C C C C C C C C C C C C C C C C C C C C C C C C C C C C C C C C C C C C C C C C C C C C ",
"C C C C C C C C C C C C   - %.%.%.%.%.O.R R ..)         C C C C C C C C C C C C C C C C C C C C C C C C C C C C C C C C C C C C C C C C C C C C ",
"C C C C C C C C C C C A H K %.%.%.%.%.I y w t u C C C C C C C C C C C C C C C C C C C C C C C C C C C C C C C C C C C C C C C C C C C C C C C C ",
"C C C C C C C C C C C J %.%.%.%.%.%.%.J O       C C C C C C C C C C C C C C C C C C C C C C C C C C C C C C C C C C C C C C C C C C C C C C C C ",
"C C C C C C C C C C C J %.%.%.U U U U G O       C C C C C C C C C C C C C C C C C C C C C C C C C C C C C C C C C C C C C C C C C C C C C C C C ",
"C C C C C C C C C C C J %.%.%.        C C C C C C C C C C C C C C C C C C C C C C C C C C C C C C C C C C C C C C C C C C C C C C C C C C C C C ",
"C C C C C C C C C C C C C C C C C C C C C C C C C C C C C C C C C C C C C C C C C C C C C C C C C C C C C C C C C C C C C C C C C C C C C C C C ",
"C C C C C C C C C C C C C C C C C C C C C C C C C C C C C C C C C C C C C C C C C C C C C C C C C C C C C C C C C C C C C C C C C C C C C C C C ",
"C C C C C C C C C C C C C C C C C C C C C C C C C C C C C C C C C C C C C C C C C C C C C C C C C C C C C C C C C C C C C C C C C C C C C C C C ",
"C C C C C C C C C C C C C C C C C C C C C C C C C C C C C C C C C C C C C C C C C C C C C C C C C C C C C C C C C C C C C C C C C C C C C C C C ",
"C C C C C C C C C C C C C C C C C C C C C C C C C C C C C C C C C C C C C C C C C C C C C C C C C C C C C C C C C C C C C C C C C C C C C C C C ",
"C C C C C C C C C C C C C C C C C C C C C C C C C C C C C C C C C C C C C C C C C C C C C C C C C C C C C C C C C C C C C C C C C C C C C C C C ",
"C C C C C C C C C C C C C C C C C C C C C C C C C C C C C C C C C C C C C C C C C C C C C C C C C C C C C C C C C C C C C C C C C C C C C C C C ",
"C C C C C C C C C C C C C C C C C C C C C C C C C C C C C C C C C C C C C C C C C C C C C C C C C C C C C C C C C C C C C C C C C C C C C C C C ",
"C C C C C C C C C C C C C C C C C C C C C C C C C C C C C C C C C C C C C C C C C C C C C C C C C C C C C C C C C C C C C C C C C C C C C C C C ",
"C C C C C C C C C C C C C C C C C C C C C C C C C C C C C C C C C C C C C C C C C C C C C C C C C C C C C C C C C C C C C C C C C C C C C C C C ",
"C C C C C C C C C C C C C C C C C C C C C C C C C C C C C C C C C C C C C C C C C C C C C C C C C C C C C C C C C C C C C C C C C C C C C C C C ",
"C C C C C C C C C C C C C C C C C C C C C C C C C C C C C C C C C C C C C C C C C C C C C C C C C C C C C C C C C C C C C C C C C C C C C C C C ",
"C C C C C C C C C C C C C C C C C C C C C C C C C C C C C C C C C C C C C C C C C C C C C C C C C C C C C C C C C C C C C C C C C C C C C C C C ",
"C C C C C C C C C C C C C C C C C C C C C C C C C C C C C C C C C C C C C C C C C C C C C C C C C C C C C C C C C C C C C C C C C C C C C C C C ",
"C C C C C C C C C C C C C C C C C C C C C C C C C C C C C C C C C C C C C C C C C C C C C C C C C C C C C C C C C C C C C C C C C C C C C C C C ",
"C C C C C C C C C C C C C C C C C C C C C C C C C C C C C C C C C C C C C C C C C C C C C C C C C C C C C C C C C C C C C C C C C C C C C C C C "
};
