/* XPM */
static char *result[] = {
/* columns rows colors chars-per-pixel */
"72 72 206 2 ",
"   c #54272E",
".  c #4E2A30",
"X  c #4B323E",
"o  c #563337",
"O  c #65232C",
"+  c #6A232C",
"@  c #642A2E",
"#  c #74222D",
"$  c #7C232D",
"%  c #6E2A31",
"&  c #7C2630",
"*  c #732932",
"=  c #7D2B34",
"-  c #7F2E38",
";  c #693937",
":  c #793738",
">  c #703D39",
",  c #5C423C",
"<  c #564B3D",
"1  c #63403B",
"2  c #784A3D",
"3  c #262B44",
"4  c #2B2E45",
"5  c #3E2F40",
"6  c #333144",
"7  c #413140",
"8  c #4D3640",
"9  c #0A574F",
"0  c #19564D",
"q  c #12594F",
"w  c #005951",
"e  c #085951",
"r  c #115A52",
"t  c #354D46",
"y  c #2F534A",
"u  c #57584B",
"i  c #735146",
"p  c #7B5846",
"a  c #765A48",
"s  c #4E6654",
"d  c #696652",
"f  c #84242F",
"g  c #89252F",
"h  c #832631",
"j  c #8B2630",
"k  c #832B34",
"l  c #8A2B36",
"z  c #872F39",
"x  c #932732",
"c  c #992733",
"v  c #952A34",
"b  c #9D2934",
"n  c #833439",
"m  c #8B333C",
"M  c #93353C",
"N  c #A9382F",
"B  c #A42A35",
"V  c #AC2B36",
"C  c #AE2F39",
"Z  c #B22D37",
"A  c #B32D39",
"S  c #BA2F39",
"D  c #A5353D",
"F  c #B3313B",
"G  c #BD313B",
"H  c #C3313C",
"J  c #CD333D",
"K  c #D2353F",
"L  c #874D3F",
"P  c #99463A",
"I  c #95513A",
"U  c #9C543D",
"Y  c #A24532",
"T  c #A44837",
"R  c #AA4A34",
"E  c #B64931",
"W  c #A7573D",
"Q  c #B8583B",
"!  c #B6643E",
"~  c #C44833",
"^  c #C25A3D",
"/  c #C7653E",
"(  c #8D3740",
")  c #973C44",
"_  c #AC3A42",
"`  c #A83B44",
"'  c #B33C44",
"]  c #BB3C45",
"[  c #C53A43",
"{  c #D63740",
"}  c #D93741",
"|  c #D43A42",
" . c #DD3942",
".. c #E23B44",
"X. c #854A41",
"o. c #8D4E42",
"O. c #855347",
"+. c #925545",
"@. c #985048",
"#. c #9B5A48",
"$. c #A4434B",
"%. c #A9454A",
"&. c #B7454A",
"*. c #A45B46",
"=. c #BD5B40",
"-. c #AC4951",
";. c #B34C53",
":. c #BA4D55",
">. c #BB5258",
",. c #9C624E",
"<. c #8F6A5B",
"1. c #9B6A59",
"2. c #A3644C",
"3. c #AA6348",
"4. c #B76942",
"5. c #B86748",
"6. c #A46453",
"7. c #A66B53",
"8. c #AB6951",
"9. c #AB6C59",
"0. c #BB6D54",
"q. c #A97559",
"w. c #B5765A",
"e. c #BC7D5A",
"r. c #B57A61",
"t. c #BA7E63",
"y. c #C9434C",
"u. c #D2444D",
"i. c #DC444D",
"p. c #C34B53",
"a. c #CD4C54",
"s. c #D34750",
"d. c #D34B53",
"f. c #DD4B53",
"g. c #C3545B",
"h. c #C75558",
"j. c #CA555C",
"k. c #D2555C",
"l. c #DB555C",
"z. c #E2444D",
"x. c #E14B53",
"c. c #E3555C",
"v. c #E9575E",
"b. c #E3585F",
"n. c #C46A45",
"m. c #CA724E",
"M. c #D67746",
"N. c #D77A47",
"B. c #C97955",
"V. c #D17850",
"C. c #CC5B62",
"Z. c #D35C63",
"A. c #DD5E65",
"S. c #E15B62",
"D. c #EC5E64",
"F. c #D46067",
"G. c #DC6369",
"H. c #EC6066",
"J. c #E6636A",
"K. c #F1656A",
"L. c #ED6D73",
"P. c #F26C72",
"I. c #F37177",
"U. c #F6757A",
"Y. c #3F9866",
"T. c #469363",
"R. c #AC865F",
"E. c #BC825E",
"W. c #BE8165",
"Q. c #B68B64",
"!. c #CB825B",
"~. c #C8885E",
"^. c #D58152",
"/. c #C48564",
"(. c #C68666",
"). c #C58A63",
"_. c #CD8D66",
"`. c #C68A6C",
"'. c #C98C6A",
"]. c #D18E64",
"[. c #D58D67",
"{. c #CD9168",
"}. c #D19065",
"|. c #DC9566",
" X c #D1936A",
".X c #DC9768",
"XX c #D7996D",
"oX c #DA9C6D",
"OX c #C78E71",
"+X c #CA9576",
"@X c #CB977A",
"#X c #D69E77",
"$X c #E09D6B",
"%X c #CBA36F",
"&X c #DDA06E",
"*X c #DCA377",
"=X c #E2A16E",
"-X c #E3A572",
";X c #E0A779",
":X c #E0A87B",
">X c #D9AF90",
",X c #D6B9A6",
"<X c #DFC099",
"1X c #E1C39E",
"2X c #E5CDA4",
"3X c #E9D2B7",
/* pixels */
"w w w w w w w w w w w w w w w w w w w w w w w w w w w w w w w w w w w w w w w w w w w w w w w w w w w w w w w w w w w w w w w w w w w w w w w w ",
"w w w w w w w w w w w w w w w w w w w w w w w w w w w w w w w w w w w w w w w w w w w w w w w w w w w w w w w w w w w w w w w w w w w w w w w w ",
"w w w w w w w w w w w w w w w w w w w w w w w w w w w w w w w w w w w w w w w w w w w w w w w w w w w w w w w w w w w w w w w w w w w w w w w w ",
"w w w w w w w w w w w w w w w w w w w w w w w w w w w w w w w w w w w w w w w w w w w w w w w w w w w w w w w w w w w w w w w w w w w w w w w w ",
"w w w w w w w w w w w w w w w w w w w w w w w w w w w w w w w w w w w w w w w w w w w w w w w w w w w w w w w w w w w w w w w w w w w w w w w w ",
"w w w w w w w w w w w w w w w w w w w w w w w w w w w w w w w w w w w w w w w w w w w w w w w w w w w w w w w w w w w w w w w w w w w w w w w w ",
"w w w w w w w w w w w w w w w w w w w w w w w w w w w w w w w w w w w w w w w w w w w w w w w w w w w w w w w w w w w w w w w w w w w w w w w w ",
"w w w w w w w w w w w w w w w w w w w w w w w w w w w w w w w w w w w w w w w w w w w w w w w w w w w w w w w w w w w w w w w w w w w w w w w w ",
"w w w w w w w w w w w w w w w w w w w w w w w w w w w w w w w w w w w w w w w w w w w w w w w w w w w w w w w w w w w w w w w w w w w w w w w w ",
"w w w w w w w w w w w w w w w w w w w w w w w w w w w w w w w w w w w w w w w w w w w w w w w w w w w w w w w w w w w w w w w w w w w w w w w w ",
"w w w w w w w w w w w w w w w w w w w w w w w w w w w w w w w Q ^ ^ / Q ^ ^ ^ ^ n.r w w w w w w w w w w w w w w w w w w w w w w w w w w w w w w ",
"w w w w w w w w w w w w w w w w w w w w w w w w w w w w t s q.,X1X<X<X<X<X<X<X,X,Xq.s t w w w w w w w w w w w w w w w w w w w w w w w w w w w w ",
"w w w w w w w w w w w w w w w w w w w w w w w w w w 0 i E.XX{.'.'.`.`.`.`.OX`.`.`. XoXe.a 0 w w w w w w w w w w w w w w w w w w w w w w w w w w ",
"w w w w w w w w w w w w w w w w w w w w w w w w q p 7.=X#XW.9.%.A A A Z A A A A D 9.t.XX=X9.p r w w w w w w w w w w w w w w w w w w w w w w w w ",
"w w w w w w w w w w w w w w w w w w w w w w w d q. XXX/.6.( & j d.K.K.K.K.K.H.l.l & L 6./.XXXXq.d w w w w w w w w w w w w w w w w w w w w w w w ",
"w w w w w w w w w w w w w w w w w w w w w L E.*X X`.9.: O A B $ A.U.I.U.U.U.U.D.j B Z + * 9./. X-XE.O.w w w w w w w w w w w w w w w w w w w w w ",
"w w w w w w w w w w w w w w w w w w y d 7.XXXXW.9.: * # m  .J g Z.U.G.s.u.F.U.A.g J ..( # * - 9.t.oXoX9.a y w w w w w w w w w w w w w w w w w w ",
"w w w w w w w w w w w w w w w w w u w.+XXX(.9.: % B H j >...H h Z.U.J.G.J.J.U.G.g H ..g.h S C O : 9.(.XXXXw.u w w w w w w w w w w w w w w w w w ",
"w w w w w w w w w w w w w w 0 X.r.XXXXB.9.: * F j p...b ( [ S $ A.I.U.U.U.U.U.S.j S [ ( x  .C.g F * : 7.t.XXoXt.O.0 e w w w w w w w w w w w w w ",
"w w w w w w w w w w w w t u t..X X`.6.: * j >...B C.} j O l.{ j k.U.U.U.U.U.U.A.g J x.* $ { F.b  .C.h = : #.`.{.oX).d t w w w w w w w w w w w w ",
"w w w w w w w w w w 9 <.W.#X X(.9.: O ) | g %.} l y.L.] + s.V $ S.U.U.P.P.U.U.D.j B s.% ' P.| k K >.j { $.O * 9.(. XXX/.<.9 w w w w w w w w w w ",
"w w w w w w w w w w O.3X*X`.6.X.h j = ` ..V $. .' L.L._ ) [ { f k.U.Z.u.y.C.U.A.j J [ ` ` L.I.'  .%.B ..' * x f X.,./.>X2X<.w w w w w w w w w w ",
"w w w w w w w w w w i OX,.: O O [ H l f. .j >.} l y.x.v g...V $ A.U.L.L.L.L.U.D.j V  .C.j i.s.l [ Z.j } i.M S K + + : @.OXX.w w w w w w w w w w ",
"w w w w w w w w w w 9 1 @ ) { # b.K h F ..V = ..B C...b =  .K g Z.U.U.U.U.U.U.S.j J ..k v  .Z.B ..k B ..] $ K S.# { ` O 1 9 w w w w w w w w w w ",
"w w w w w w w w w w w w . D.H # x.H k f. .B >. .c p.f.v g...[ f l.U.U.U.U.U.U.S.f S ..C.j ..C.x } Z.c ..x.l ] x.# S D.  w w w w w w w w w w w w ",
"w w w w w w w w w w w w   ) S $.z.K h F ..B k  .D A.P.&.n ..H g S.U.U.D.v.I.U.D.x S ..z ' L.S.` } z c  .[ $ J ..-.A _   w w w w w w w w w w w w ",
"w w w w w w w w w w w w . J.] >...J l f...V g. .' J.P._ >...J $ g.U.:.] ] :.U.C.$ { ..C.` J.I.' } Z.B ..f.l S ..g.A H.  w w w w w w w w w w w w ",
"w w w w w w w w w w w w . p.S = i.H k ' } x $.} v a.z.x ` [ S f c.U.U.U.U.U.U.J.j S [ ` g  .k.l } -.x  .' l { ..z A a.  w w w w w w w w w w w w ",
"w w w w w w w w w w w w . h.{ $ S.K $ $. .V %...V C...b O a.K f g.U.U.U.U.U.U.Z.f J | % x  .F.b  .>.B ..` # [ S.$ { k.  w w w w w w w w w w w w ",
"w w w w w w w w w w w w . S.H * f.G + -. .c >. .x :.} h + l.[ h S.U.U.U.I.U.U.D.j S l.* f { j.v } C.x  .:.+ A x.& S S.  w w w w w w w w w w w w ",
"w w w w w w w w w w w w . %.G -...K f m  .B (  ._ i...b z g.S.b Z.I.G.s.u.G.U.A.g [ [ k x  .i.` } ) b ..( h { ..:.A ]   w w w w w w w w w w w w ",
"w w w w w w w w w w w w . J.G -...G k f...B g. .` | } j g.U.A.b Z.U.G.A.A.G.U.A.f H ..C.$ { ..` } Z.c ..i.( A ..;.C D.  w w w w w w w w w w w w ",
"w w w w w w w w w w w w . ` H # f.K h ] ..b m  .c :...b ( x.[ f S.I.U.U.U.U.U.D.j S ..) x  .k.x } ) c  .[ h J x.h S ]   w w w w w w w w w w w w ",
"w w w w w w w w w w w w . H.K $ S.[ k f...V g...B C. .j g...K f j.I.U.U.U.U.U.Z.$ J ..j.j K Z.b  .F.B ..x.m S S.& J H.  w w w w w w w w w w w w ",
"w w w w w w w w w w w w . h.S # [ [ k u. .c %. .b y. .x %...S f S.U.U.P.K.U.U.D.x S ..-.j K u.v { :.x  .u.z S y.# S a.  w w w w w w w w w w w w ",
"w w w w w w w w w w w w . Z.J # l.{ j u...V -. ._ f...b ;...J f g.I.:.A _ ;.U.C.$ J ..:.c  .z.' } >.B ..i.l K c.& J l.  w w w w w w w w w w w w ",
"w w w w w w w w w w w w . A.H # y.A = s...b :. .` u.{ f >. .H h S.U.U.U.I.U.U.D.j H  .g.$ { | ` { C.c  .f.z V a.# H S.  w w w w w w w w w w w w ",
"w w w w w w w w w w w w . :.J # a.{ l [  .B ) ..c p...b - [ H h d.D.D.D.D.H.H.l.h G [ n x  .C.x  .$.c ..[ l { d.* S a.  w w w w w w w w w w w w ",
"w w w w w w w w w w w w . J.K $ A.V = f...A >...B C.{ # % l.{ N E ~ ~ ~ ~ ~ ~ ~ N | c.* # { Z.B  .Z.B ..x.m b v.& { D.  w w w w w w w w w w w w ",
"w w w w w w w w w w w w . a.Z + ' { l y.} x $.{ v [ ..b + >.#.,X2X2X2X2X2X2X2X2X,X*.g.% x { | m { -.j } u.l [ ] + V a.  w w w w w w w w w w w w ",
"w w w w w w w w w w w w . k.K $ S.H k | ..C -...' x.{ ) 2.). X#X@X@X+X+X+X+X+X+X#XXX'.,.P | z.'  .>.V ..u.z S v.& J l.  w w w w w w w w w w w w ",
"w w w w w w w w w w w w . F.Z O _ H z s. .l ;.} j o.*. X-X`.t.2.o.o.o.o.+.L L o.#.t.'.oX X8.o.j K h.f K i.l H ' + V S.  w w w w w w w w w w w w ",
"w w w w w w w w w w w w . &.J $ c.{ & ] ..A ( &.8.].oX'.r.2.@.5.V.V.V.V.V.V.V.V.n.U 2.r.`.oX X8.&.o.B ..[ l J S.$ J ]   w w w w w w w w w w w w ",
"w w w w w w w w w w w w . K.G # z.S k f. .) *.oXoX'.W.*.P Q B.].].].].[.}.}.}. X_.!.Q P *.r.'.oX.X2.$.} f.m A x.$ S D.  w w w w w w w w w w w w ",
"w w w w w w w w w w w w   %.F -...K h o.*. XoX'.r.#.@.5.B./.)./.w.7.1.1.1.1.1.w.(.(./.B.5.*.#.w.'.oX X8.@.$ K ..;.A &.  w w w w w w w w w w w w ",
"w w w w w w w w w w w w . J.G ;. .` 8. XoX'.W.+.W m.|.=X-X-X-X=X7.4 4 4 4 4 3 ,.-X-X-X=X-X|.B.W +.t.(.XXXX8.T | g.Z D.  w w w w w w w w w w w w ",
"w w w w w w w w w w w w . :.C ; ,.XXoX'.t.*.P Q B.]._._.}.]._.}.B.3 3 3 4 4 3 e.}._.].]._.].].B.=.P *.t.`.oXXX7.% D p.  w w w w w w w w w w w w ",
"w w w w w w w w w w w w o $.0.).XX{.r.*.*.5.B.(._._.)._._._._._.e.5 7 7 5 7 5 w._._.)._.(._._._.'.B.0.*.*.q.{.XX_.0.-.o w w w w w w w w w w w w ",
"w w w w w w w w w w e u 8.[..X'.W.+.U =.|.oX-X-X-X-X-X-X-X-X&X-Xm.> > > > > 1 n.-X-X&X-X-X=X-X=X-X-X-X|.B.T +./.`.XXXXw., e w w w w w w w w w w ",
"w w w w w w w w w w O.3X>X_.w.8.P Q m._.}.[.}.}.].].}.].}.}.}.}.m.+.+.+.+.+.#.n.}.}.}.}.}.}.}.}.}.}.}.].}.B.=.L 6.w.`.*X3X<.w w w w w w w w w w ",
"w w w w w w w w w w i @Xr.,.P R B.]. X_._.}._. X_. X_._.}.}.{.{._._. X X_._. X_._._.}.{.}.{.{.{._. X_._._. X X!.R P ,.w.@XO.w w w w w w w w w w ",
"w w w w w w w w w w 9 : P E B.Y oX-X-X-X-X-X-X-X-X-X-X-X-X-X=X-X-X;X-X-X-X-X-X-X-X-X-X-X-X-X-X-X-X-X-X-X-X-X-X=XR e.n.Y 2 9 w w w w w w w w w w ",
"w w w w w w w w w w w w , &X).Y _.].].}.}.}.}.}.}.}.P 3 3 3 3 3 3 3 3 3 3 3 3 3 3 3 3 3 3 n }.}.}.}.]._.].].}._.R E.;X1 w w w w w w w w w w w w ",
"w w w w w w w w w w w w , &X).Y _.}._.}.{.{. X}._. XM 3 3 3 3 3 3 3 3 3 3 3 3 3 3 3 3 3 3 n }.}. X X X X_. X}.].R E.-X1 w w w w w w w w w w w w ",
"w w w w w w w w w w w w , &X).Y oXM.!. X|.|.|.|. XV.E 7 3 3 3 3 3 3 3 3 3 3 3 3 3 3 3 3 5 R m.|.|.|.|.|.|.!.m.$XR E.-X; w w w w w w w w w w w w ",
"w w w w w w w w w w w w , oX~.P !.^.7.B.}.}.|.|.3.E./ X 3 3 3 3 3 3 3 3 3 3 3 3 3 3 3 3 X ! ~.3._.[.[.[.B.1.^.!.R E.;X; w w w w w w w w w w w w ",
"w w w w w w w w w w w w , &X~.Y ]./ W ! / ^.^./ Q ! E X 3 3 3 3 3 3 3 3 3 3 3 3 3 3 3 3 X R / W N.^.N.N./ W / ].R W.-X1 w w w w w w w w w w w w ",
"w w w w w w w w w w w w , &X).Y &Xm.W ,.3.4.2.2.#.4.E 8 3 3 3 3 3 3 3 3 3 3 3 3 3 4 3 3 7 E ! I 3.2.3.2.2.U / oXR E.-X1 w w w w w w w w w w w w ",
"w w w w w w w w w w w w < %XQ.I Q.! U 4.V.B.m.m.,.! E o 6 6 6 6 6 6 6 6 6 6 6 6 6 6 6 6 X E / ,.m.m.m.m.5.U / Q.U R.%X1 w w w w w w w w w w w w ",
"w w w w w w w w w w w w w Y.Y.Y.Y.! W {.;X;X*X:X!.! E O.a a a a a a a a a a a a a a a a a R ! e.*X*X:X;X X*.! T.Y.Y.Y.w w w w w w w w w w w w w ",
"w w w w w w w w w w w w w w w w w O.U ! 4.! 4.! U W 2 w w w w w w w w w w w w w w w w w w 2 ! W 4.4.4.4.! I +.w w w w w w w w w w w w w w w w w ",
"w w w w w w w w w w w w w w w w w r q q r q r q q q q w w w w w w w w w w w w w w w w w w 9 9 q q q q q q q 9 w w w w w w w w w w w w w w w w w ",
"w w w w w w w w w w w w w w w w w w w w w w w w w w w w w w w w w w w w w w w w w w w w w w w w w w w w w w w w w w w w w w w w w w w w w w w w ",
"w w w w w w w w w w w w w w w w w w w w w w w w w w w w w w w w w w w w w w w w w w w w w w w w w w w w w w w w w w w w w w w w w w w w w w w w ",
"w w w w w w w w w w w w w w w w w w w w w w w w w w w w w w w w w w w w w w w w w w w w w w w w w w w w w w w w w w w w w w w w w w w w w w w w ",
"w w w w w w w w w w w w w w w w w w w w w w w w w w w w w w w w w w w w w w w w w w w w w w w w w w w w w w w w w w w w w w w w w w w w w w w w ",
"w w w w w w w w w w w w w w w w w w w w w w w w w w w w w w w w w w w w w w w w w w w w w w w w w w w w w w w w w w w w w w w w w w w w w w w w ",
"w w w w w w w w w w w w w w w w w w w w w w w w w w w w w w w w w w w w w w w w w w w w w w w w w w w w w w w w w w w w w w w w w w w w w w w w ",
"w w w w w w w w w w w w w w w w w w w w w w w w w w w w w w w w w w w w w w w w w w w w w w w w w w w w w w w w w w w w w w w w w w w w w w w w ",
"w w w w w w w w w w w w w w w w w w w w w w w w w w w w w w w w w w w w w w w w w w w w w w w w w w w w w w w w w w w w w w w w w w w w w w w w ",
"w w w w w w w w w w w w w w w w w w w w w w w w w w w w w w w w w w w w w w w w w w w w w w w w w w w w w w w w w w w w w w w w w w w w w w w w ",
"w w w w w w w w w w w w w w w w w w w w w w w w w w w w w w w w w w w w w w w w w w w w w w w w w w w w w w w w w w w w w w w w w w w w w w w w "
};
