/* XPM */
static char *b6898cf473864959a8bd79c0f28b95f4hrwK0enxEFJqIrAv[] = {
/* columns rows colors chars-per-pixel */
"72 72 174 2 ",
"   c None",
".  c #010100",
"X  c #1F180D",
"o  c #332817",
"O  c #3C2F1B",
"+  c #3E301C",
"@  c #43331C",
"#  c #4C391D",
"$  c #4B3514",
"%  c #543E1E",
"&  c #4C3727",
"*  c #463A27",
"=  c #4D3C22",
"-  c #4E3A2B",
";  c #423622",
":  c #523A2C",
">  c #503E23",
",  c #563B30",
"<  c #56401F",
"1  c #6E4F1F",
"2  c #62471D",
"3  c #72511F",
"4  c #5F4A2A",
"5  c #5A4428",
"6  c #4D4230",
"7  c #524735",
"8  c #674B20",
"9  c #624D2B",
"0  c #684C21",
"q  c #7E5820",
"w  c #785421",
"e  c #614339",
"r  c #6E5631",
"t  c #66563C",
"y  c #725932",
"u  c #685D4E",
"i  c #7B514D",
"p  c #6E6456",
"a  c #7F715C",
"s  c #756E62",
"d  c #7B7469",
"f  c #815B22",
"g  c #885F22",
"h  c #8D6224",
"j  c #8D662B",
"k  c #916625",
"l  c #966926",
"z  c #9A6C27",
"x  c #956A29",
"c  c #9E6E29",
"v  c #8C6A38",
"b  c #996B35",
"n  c #99743B",
"m  c #A17129",
"M  c #A8762B",
"N  c #AD792C",
"B  c #B37E2D",
"V  c #A57732",
"C  c #A67935",
"Z  c #AC7C34",
"A  c #AC7E38",
"S  c #B47D38",
"D  c #81554E",
"F  c #825255",
"G  c #87555A",
"H  c #8A5A59",
"J  c #905D58",
"K  c #946340",
"L  c #9E6C46",
"P  c #9C7A45",
"I  c #927240",
"U  c #99615C",
"Y  c #AB7C4A",
"T  c #BC7E4A",
"R  c #A56B5C",
"E  c #985E68",
"W  c #955F63",
"Q  c #9F6569",
"!  c #81796E",
"~  c #887D6D",
"^  c #A7696F",
"/  c #AB6C66",
"(  c #AF6D76",
")  c #B16E79",
"_  c #B27070",
"`  c #BD7875",
"'  c #BC757E",
"]  c #B7802E",
"[  c #BA822F",
"{  c #AD813E",
"}  c #B38134",
"|  c #BC8431",
" . c #BE8837",
".. c #B2843E",
"X. c #BD843C",
"o. c #BF8A3A",
"O. c #C08C3E",
"+. c #AF894D",
"@. c #B58843",
"#. c #BD8E45",
"$. c #B18A4D",
"%. c #B98546",
"&. c #BF914C",
"*. c #B78F53",
"=. c #BE9352",
"-. c #8B8479",
";. c #8F887D",
":. c #9A8D7A",
">. c #BA9763",
",. c #B19C7D",
"<. c #BA8463",
"1. c #C18E41",
"2. c #C29146",
"3. c #C3934B",
"4. c #C18858",
"5. c #C39652",
"6. c #C59955",
"7. c #C89C57",
"8. c #C79C5A",
"9. c #C99D59",
"0. c #C48B6F",
"q. c #C99B61",
"w. c #C3877A",
"e. c #C9A267",
"r. c #CDA871",
"t. c #D0AC74",
"y. c #BE7682",
"u. c #BA7D83",
"i. c #C17F88",
"p. c #958A83",
"a. c #989289",
"s. c #BD878F",
"d. c #AD9F89",
"f. c #A39D95",
"g. c #B0A697",
"h. c #ADAAA6",
"j. c #B1AFAC",
"k. c #B5B3B0",
"l. c #C88E8A",
"z. c #C4858B",
"x. c #C58691",
"c. c #C98F97",
"v. c #C68893",
"b. c #CA9290",
"n. c #CB919A",
"m. c #C19298",
"M. c #D4B688",
"N. c #D5BB93",
"B. c #D8BD94",
"V. c #CF9DA5",
"C. c #D5AFB6",
"Z. c #D9B7BD",
"A. c #DBC29D",
"S. c #DEC9A9",
"D. c #DFCDB2",
"F. c #D4C8B6",
"G. c #E4D5BE",
"H. c #DCBEC3",
"J. c #CDCDCE",
"K. c #D8CBCC",
"L. c #DFD4C6",
"P. c #CFCFD0",
"I. c #D6D5D3",
"U. c #D7D7D8",
"Y. c #DEDDDC",
"T. c #E0DFDE",
"R. c #E9DFD0",
"E. c #EBE5DC",
"W. c #E8E0D4",
"Q. c #E9DFE1",
"!. c #EBEBEC",
"~. c #E9E5E4",
"^. c #F0EFEF",
"/. c #F1F1F2",
/* pixels */
"                                                                                                                                                ",
"                                                                                                                                                ",
"                                                                                                                                                ",
"                                                                                                                                                ",
"                                                                                                                                                ",
"                                                                                                                                                ",
"                                                                                                                                                ",
"                                                                                                                                                ",
"                                                                                                                                                ",
"                                                                                                                                                ",
"                                                                                                                                                ",
"                                                                                                                                                ",
"                                                                                                                                                ",
"                                                                                                                                                ",
"                                                                                                                                                ",
"                                                                                                                                                ",
"                                                                                                                                                ",
"                                                                                                                                                ",
"                                                                                                                                                ",
"                                                                                    O O O O O O O O O O                                         ",
"                                                                                    O O O O O O O O O O                                         ",
"                                                                                    9 9 9 4 9 9 9 t p p                                         ",
"                                                                          O O O O 9 6.6.6.6.6.6.6.N.!.!.u O O                                   ",
"                                                                          + O + + 9 8.8.7.9.9.9.8.B././.u + +                                   ",
"                                                                        0 f f I K n 2.2.5.7.9.9.9.t.A.A.g.f.a.                                  ",
"                                                    O O O O O O O O O O h | | 6.9.3.| | 3.7.9.7.9.9.9.9.W./.P.+ O O                             ",
"                                                    = = # # # = = # # # j X.%.8.9.5.X.S 3.5.5.+.$.&.9.9.G.E.F.7 7 6                             ",
"                                          O O + O @ $.*.@.M M @.*.+.M M <.l.l.b.b.z.` ' %.O.| X X 9 9.9.5.5.e.I.I.;.O O                         ",
"                                          O O O O @ 9.9.2.| [ 6.7.6.| | 0.n.n.n.n.v.i.y.%.| N . . < 8.8.o.[ 6././.a.+ +                         ",
"                                          y y y y y 2.3.2.O.O.2.2.3.4.4.w.v.x.v.v.<./ R T | B . . # 3.3. .[ 2.S.S.d.d d                         ",
"                                    O O r 6.8.6.8.6.| | 2.7.7. .| %.c.c.i.y.y.y.y./ f f m [ N . . $ [ | [ | ]  . .B.!.Y.7 O                     ",
"                                    @ + r 7.7.8.9.6.| [ O.7.7. .B O.c.c.i.' y.y.' / f f M [ ] . . $ | | | | |  . .A./.E.7 +                     ",
"                              O O O P P { O.O.6.9.7.M M } O.O.| O.B Y Y b K K K K b M M B B ] f f z O.2.O.] O.D.D.R./.T.7 O                     ",
"                              O O O 7.7.2.[ [ 5.9.6.m m B | [ [ [ [ m c k f f f f k S O.[ O.[ O.] O.7.7.O.O.2.^./././.Q.7 O                     ",
"                              = 5 5 5.6.2.| [ 2.3.=.V V N ] ] [ O.] M M b g k j h c [ O.[ [ [ O.O.7.t.t.7.6.r././.Q.Q.K.7 O                     ",
"                          O O n *.$. .|  .| | M M V 6.6...m m ] [ [ B [ #.5.5.4.3.O.[ [ O.[ O.O.3.M.E.E.E.E.E././.L.V.n.- O                     ",
"                          O O P 7.7.[ [ | | | M m c 9.9.@.m m ] [ | | | 1.9.9.9.9.3.O.[ O.[ O.9.7.B./././././././.H.n.s.- O                     ",
"                          O O n 2.2.| | ] N N ....@.@.@.} N N [ | | [ | 2.9.9.2.1.7.M.M.M.M.M.B.A.G./././././././.Z.x.u.- O                     ",
"                          + + x | | | [ B m m &.9.6.c m N [ [ [ | [ | | 2.7.9. .[ 9.^.^.!.^./.^./././././././././.C.y.) & O                     ",
"                          + + x [ [ | | N m m &.8.6.c m N [ [ [ O.[ | | 2.7.7. .O.e./.^.^.^./././././././././.^./.C.' ( & O                     ",
"                    O O 4 P P V N M [ | [ ] ] Z Z Z B B M N M ] B [ M M B O.O.M M =././././././././././././.!.U.U.p.e e                         ",
"                    O O 9 9.9.A m m [ [ | [ | m c c | | N c m B O.B m c B [ [ m m 5././././././././././././.!.J.P.d O O                         ",
"                    O O 4 3.=.A m M ] ] ] ] ] M M M ] B N m c B B B M M B B B M M *.L.L.~./././././././.!.!.Y.h.h.s O O                         ",
"                    + O % m m B [ [ m m m m m ] [ [ m m c m m m m M [ B N m m B | S C C F./././././././.U.J.k.* * ;                             ",
"                    O O < m c B | [ c m c m m ] [ [ m c m m m m m m [ [ N m m [ | B m m F./././././././.I.J.j.O O O                             ",
"                    + O < c c z c z h h z N N c z z m m l h h c m m M M z h g M N x 0 0 ! -.-.~ -.:.,.,.~ d s                                   ",
"                    O O < c m h f 3 f f l [ [ h f f m m k q q z m m m m h f f m c f O O o O O O O % q q # O O                                   ",
"                    O O % m c h g g h 3 l [ [ h q f c c k f q z m z m m h f f l c f O O @ @ @ O O 5 q q # O O                                   ",
"                    O O : U U / _ _ _ _ J % % 3 f g g g h z z g g f f g f f f % = 5 G G Q ^ ^ ^ ^ D # @                                         ",
"                    O O : E E ) y.y.y.y.H O O 3 f 3 f q h m m g f f f f f f q @ O , E E ) y.y.y.' H O O                                         ",
"                    O O : F F W Q Q Q ^ i O O 2 1 1 1 1 w g g 1 1 1 1 1 1 1 0 @ O : F F W Q Q Q Q i O O                                         ",
"                          O O O O O O O O + O o o o o o o o o O O O O O O O + O O O O O O O + O O O                                             ",
"                          O O O O O + O O O O o o o o o o o o O O O O O O O O O O O O O O O O O O O                                             ",
"                                                                                                                                                ",
"                                                                                                                                                ",
"                                                                                                                                                ",
"                                                                                                                                                ",
"                                                                                                                                                ",
"                                                                                                                                                ",
"                                                                                                                                                ",
"                                                                                                                                                ",
"                                                                                                                                                ",
"                                                                                                                                                ",
"                                                                                                                                                ",
"                                                                                                                                                ",
"                                                                                                                                                ",
"                                                                                                                                                ",
"                                                                                                                                                ",
"                                                                                                                                                ",
"                                                                                                                                                ",
"                                                                                                                                                ",
"                                                                                                                                                "
};
