/* XPM */
static char *result[] = {
/* columns rows colors chars-per-pixel */
"72 72 81 1 ",
"  c #0B342F",
". c #123B2E",
"X c #143D2E",
"o c #002A31",
"O c #003E3F",
"+ c #295E1B",
"@ c #376A1C",
"# c #20761B",
"$ c #3C7F16",
"% c #00492D",
"& c #004D2C",
"* c #004E2C",
"= c #1B4D22",
"- c #09552B",
"; c #0E5429",
": c #1E5020",
"> c #004635",
", c #09453C",
"< c #096C24",
"1 c #0A6C24",
"2 c #016929",
"3 c #17673B",
"4 c #39612A",
"5 c #2E7625",
"6 c #25702E",
"7 c #2F7632",
"8 c #317732",
"9 c #337833",
"0 c #3F7E36",
"q c #36793D",
"w c #397B3C",
"e c #416929",
"r c #446C28",
"t c #004040",
"y c #004141",
"u c #004443",
"i c #004745",
"p c #004A47",
"a c #0B5F45",
"s c #00524C",
"d c #00544E",
"f c #065C4A",
"g c #055C4E",
"h c #085E4B",
"j c #0B5F4C",
"k c #005950",
"l c #005951",
"z c #1B6947",
"x c #1C6A46",
"c c #12634A",
"v c #166648",
"b c #2A7241",
"n c #3C820F",
"m c #3E830F",
"M c #398425",
"N c #4A880B",
"B c #508B0E",
"V c #538D0E",
"C c #5E9312",
"Z c #5F9413",
"A c #619513",
"S c #629614",
"D c #639614",
"F c #649715",
"G c #669815",
"H c #669816",
"J c #679816",
"K c #6A9A17",
"L c #6B9A17",
"P c #6E9C18",
"I c #78A21C",
"U c #558D26",
"Y c #568D2C",
"T c #4C8734",
"R c #418039",
"E c #518A33",
"W c #548B31",
"Q c #6E9423",
"! c #6C9A29",
"~ c #709F21",
"^ c #83A821",
/* pixels */
"llllllllllllllllllllllllllllllllllllllllllllllllllllllllllllllllllllllll",
"llllllllllllllllllllllllllllllllllllllllllllllllllllllllllllllllllllllll",
"llllllllllllllllllllllllllllllllllllllllllllllllllllllllllllllllllllllll",
"llllllllllllllllllllllllllllllllllllllllllllllllllllllllllllllllllllllll",
"llllllllllllllllllllllllllllllllllllllllllllllllllllllllllllllllllllllll",
"llllllllllllllllllllllllllllllllllllllllllllllllllllllllllllllllllllllll",
"llllllllllllllllllllllllllllllllllllllllllllllllllllllllllllllllllllllll",
"llllllllllllllllllllllllllllllllllllllllllllllllllllllllllllllllllllllll",
"llllllllllllllllllllllllllllllllllllllllllllllllllllllllllllllllllllllll",
"llllllllllllllllllllllllllllllllllllllllllllllllllllllllllllllllllllllll",
"llllllllllllllllllllllllllllllllllllllllllllllllllllllllllllllllllllllll",
"llllllllllllllllllllllllllllllllllllllllllllllllllllllllllllllllllllllll",
"lllllllllllllllllRR66668RbllllllllzR96666kllllllllllllllllllllllllllllll",
"lllllllllllllllll^^NNNNS^Wllllllllq^HNNNNkllllllllllllllllllllllllllllll",
"lllllllllllllllll!!nnBVDIYvvllllvv0IGVV$$kllllllllllllllllllllllllllllll",
"lllllllllllllllllll22~^KNC^^llll^^LNH^^lllllllllllllllllllllllllllllllll",
"lllllllllllllllllll22~^KNC^^llll^^LNH^^lllllllllllllllllllllllllllllllll",
"llllllllllllllllllloooo4^PNN22^^NNA^eoolllllllllllllllllllllllllllllllll",
"llllllllllllllllllloooo4^PNN22^^NNA^eoolllllllllllllllllllllllllllllllll",
"llllllllllllllllllllllluoooo222222*oylllllllllllllllllllllllllllllllllll",
"llllllllllllllllllllllluoooo222222*oylllllllllllllllllllllllllllllllllll",
"llllllllllllllllllllllllllll22NN^^Tlllllllllllllllllllllllllllllllllllll",
"llllllllllllllllllllllllllll22NN^^Tlllllllllllllllllllllllllllllllllllll",
"llllllllllllllllllllllllllll&&++KKUwxlllllllllllllllllllllllllllllllllll",
"llllllllllllllllllllllllllllooooNNA^Rlllllllllllllllllllllllllllllllllll",
"llllllllllll35555EEllllllllliiii==@Z7lllllllllllllllllllllllllllllllllll",
"llllllllllll6NNNN^^llllllllllllloo:N6lllllllllllllllllllllllllllllllllll",
"llllllllllll6NNNN^^llllllllllllloo:N6lllllllllllllllllllllllllllllllllll",
"llllllllllllyo ^^NN^^clw^^^^llllllq^Rlllllllllllllllllllllllllllllllllll",
"llllllllllllyo ^^NN^^clw^^^^llllllq^Rlllllllllllllllllllllllllllllllllll",
"lllllllllllllldoo^^NN12#NNNN^^llllllllllllllllllllllllllllllllllllllllll",
"lllllllllllllldoo^^NN12#NNNN^^llllllllllllllllllllllllllllllllllllllllll",
"llllllllllllllllloo2222M^^^^NNllllllllllllllllllllllllllllllllllllllllll",
"llllllllllllllllloo2222M^^^^NNllllllllllllllllllllllllllllllllllllllllll",
"lllllllllllllllllQQmm<2-XXXXaallllllllllllllllllllllllllllllllllllllllll",
"lllllllllllllllll^^NN12&oooollllllllllllllllllllllllllllllllllllllllllll",
"llllllllllllllgRRHHHH;%>yyyyllllllllllllllllllllllllllllllllllllllllllll",
"llllllllllllllj^^NN^^.oOllllllllllllllllllllllllllllllllllllllllllllllll",
"llllllllllllllhJJFFrr,tpllllllllllllllllllllllllllllllllllllllllllllllll",
"llllllllllllllfNN^^oosllllllllllllllllllllllllllllllllllllllllllllllllll",
"llllllllllllllfNN^^oosllllllllllllllllllllllllllllllllllllllllllllllllll",
"lllllllllllllllll^^lllllllllllllllllllllllllllllllllllllllllllllllllllll",
"lllllllllllllllll^^lllllllllllllllllllllllllllllllllllllllllllllllllllll",
"llllllllllllllllllllllllllllllllllllllllllllllllllllllllllllllllllllllll",
"llllllllllllllllllllllllllllllllllllllllllllllllllllllllllllllllllllllll",
"llllllllllllllllllllllllllllllllllllllllllllllllllllllllllllllllllllllll",
"llllllllllllllllllllllllllllllllllllllllllllllllllllllllllllllllllllllll",
"llllllllllllllllllllllllllllllllllllllllllllllllllllllllllllllllllllllll",
"llllllllllllllllllllllllllllllllllllllllllllllllllllllllllllllllllllllll",
"llllllllllllllllllllllllllllllllllllllllllllllllllllllllllllllllllllllll",
"llllllllllllllllllllllllllllllllllllllllllllllllllllllllllllllllllllllll",
"llllllllllllllllllllllllllllllllllllllllllllllllllllllllllllllllllllllll",
"llllllllllllllllllllllllllllllllllllllllllllllllllllllllllllllllllllllll",
"llllllllllllllllllllllllllllllllllllllllllllllllllllllllllllllllllllllll",
"llllllllllllllllllllllllllllllllllllllllllllllllllllllllllllllllllllllll",
"llllllllllllllllllllllllllllllllllllllllllllllllllllllllllllllllllllllll",
"llllllllllllllllllllllllllllllllllllllllllllllllllllllllllllllllllllllll",
"llllllllllllllllllllllllllllllllllllllllllllllllllllllllllllllllllllllll",
"llllllllllllllllllllllllllllllllllllllllllllllllllllllllllllllllllllllll",
"llllllllllllllllllllllllllllllllllllllllllllllllllllllllllllllllllllllll",
"llllllllllllllllllllllllllllllllllllllllllllllllllllllllllllllllllllllll",
"llllllllllllllllllllllllllllllllllllllllllllllllllllllllllllllllllllllll",
"llllllllllllllllllllllllllllllllllllllllllllllllllllllllllllllllllllllll",
"llllllllllllllllllllllllllllllllllllllllllllllllllllllllllllllllllllllll",
"llllllllllllllllllllllllllllllllllllllllllllllllllllllllllllllllllllllll",
"llllllllllllllllllllllllllllllllllllllllllllllllllllllllllllllllllllllll",
"llllllllllllllllllllllllllllllllllllllllllllllllllllllllllllllllllllllll",
"llllllllllllllllllllllllllllllllllllllllllllllllllllllllllllllllllllllll",
"llllllllllllllllllllllllllllllllllllllllllllllllllllllllllllllllllllllll",
"llllllllllllllllllllllllllllllllllllllllllllllllllllllllllllllllllllllll",
"llllllllllllllllllllllllllllllllllllllllllllllllllllllllllllllllllllllll",
"llllllllllllllllllllllllllllllllllllllllllllllllllllllllllllllllllllllll"
};
